<?xml version="1.0" encoding="UTF-8" standalone="no"?>
<!-- Created with Inkscape (http://www.inkscape.org/) -->

<svg
   xmlns:dc="http://purl.org/dc/elements/1.1/"
   xmlns:cc="http://creativecommons.org/ns#"
   xmlns:rdf="http://www.w3.org/1999/02/22-rdf-syntax-ns#"
   xmlns:svg="http://www.w3.org/2000/svg"
   xmlns="http://www.w3.org/2000/svg"
   xmlns:sodipodi="http://sodipodi.sourceforge.net/DTD/sodipodi-0.dtd"
   xmlns:inkscape="http://www.inkscape.org/namespaces/inkscape"
   width="256"
   height="256"
   id="svg3152"
   version="1.1"
   inkscape:version="0.48.4 r9939"
   sodipodi:docname="icon.svg">
  <defs
     id="defs3154" />
  <sodipodi:namedview
     id="base"
     pagecolor="#ffffff"
     bordercolor="#666666"
     borderopacity="1.0"
     inkscape:pageopacity="0.0"
     inkscape:pageshadow="2"
     inkscape:zoom="0.7"
     inkscape:cx="186.44238"
     inkscape:cy="175.30878"
     inkscape:document-units="px"
     inkscape:current-layer="layer1"
     showgrid="false"
     inkscape:window-width="1366"
     inkscape:window-height="713"
     inkscape:window-x="0"
     inkscape:window-y="30"
     inkscape:window-maximized="1" />
  <metadata
     id="metadata3157">
    <rdf:RDF>
      <cc:Work
         rdf:about="">
        <dc:format>image/svg+xml</dc:format>
        <dc:type
           rdf:resource="http://purl.org/dc/dcmitype/StillImage" />
        <dc:title />
      </cc:Work>
    </rdf:RDF>
  </metadata>
  <g
     inkscape:label="Layer 1"
     inkscape:groupmode="layer"
     id="layer1"
     transform="translate(0,-796.36218)">
    <rect
       style="fill:#71c837;stroke:none;fill-opacity:1"
       id="rect3160"
       width="256"
       height="256"
       x="0"
       y="796.36218" />
    <g
       transform="matrix(1.0099376,0,0,-1.0099376,-275.07872,1640.6574)"
       id="g4506">
      <path
         inkscape:connector-curvature="0"
         id="path4242"
         style="fill:#b7ccd8;fill-opacity:1;fill-rule:evenodd;stroke:none"
         d="m 479.5248,632.0656 c 0.3164,0.2755 1.0145,1.1472 1.16,1.5931 0.0972,-0.2475 0.1448,-0.7129 0.4127,-0.7864 1.1613,1.4035 0.1417,1.6206 1.5279,0.3274 0.1187,-0.1114 0.0864,-0.0977 0.1666,-0.0867 0.0547,0.2614 0.8309,1.3187 1.0534,1.3394 0.1003,-0.1729 0.3597,-0.6358 0.4742,-0.7793 0.1829,0 1.082,1.2093 1.3595,1.2331 0.0519,-0.3696 0.1667,-0.6443 0.4944,-0.7739 0.1499,0.0905 1.2897,1.287 1.6597,1.287 0.0878,-0.4258 0.2046,-0.4247 0.4067,-0.7061 0.5137,0 1.7045,2.4372 2.2082,0.5028 0.1072,-0.1037 0.1123,-0.1321 0.1398,-0.1822 0.0949,0 0.9357,0.9351 1.0479,1.1058 0.6758,0 0.207,-2.2173 1.5208,-0.7059 0.0647,0.0732 0.1644,0.1123 0.2716,0.205 l 0.1213,-0.205 c 0.1344,-0.2284 0.2103,-0.5179 0.4592,-0.6613 0.2566,0.1338 1.0681,0.7682 1.3476,0.6398 0.0629,-0.2767 0.307,-0.6599 0.3467,-0.8527 0.3453,-0.1199 0.8909,0.6293 1.5735,0.7872 0.4399,-3.0061 1.5976,-0.2781 2.8066,-0.6534 -0.4405,-3.386 0.6525,-0.157 1.9488,-0.773 -0.0411,-0.2285 -0.0204,-0.4992 -0.0204,-0.7342 0.2018,0.025 0.9309,0.2376 0.9462,0.233 0.5698,-2.4097 0.0669,-0.2945 1.8862,-0.5666 0.0187,-0.1202 -0.6415,-0.6795 -0.4686,-1.1035 0.3881,-0.0567 1.3377,0.1202 1.5571,-0.2764 -0.3283,-0.6809 -0.4003,-1.0378 -0.4003,-1.728 0.6452,0 1.2048,0.0802 1.7601,0.0802 0.0164,-0.1984 -0.1559,-0.3909 -0.2526,-0.5601 0.182,-0.4414 1.224,0.3016 1.912,0.1327 -0.2903,-0.8924 -0.2798,-1.217 -0.7098,-2.0923 0.0722,0 1.7478,0.5669 2.0267,0.3988 0,-0.142 -0.0116,-0.1233 -0.1545,-0.1459 -0.1593,-0.4371 -1.1313,-1.3754 -1.1596,-1.6739 0.5913,-0.0751 0.5505,-0.1599 0.9865,-0.2599 0.1244,-0.2696 -0.5126,-0.7087 -0.8394,-1.387 0.3373,-0.0984 2.2187,-0.254 2.6719,-0.254 0.0446,-0.5202 -1.6483,-0.8652 -1.4261,-1.3462 0.3442,-0.0796 1.446,-0.2265 1.5798,-0.2679 -0.0525,-0.4033 -1.0814,-1.3141 -1.4338,-1.5071 0,-0.0848 -0.0105,-0.1375 0,-0.2194 0.792,-0.3036 1.7992,-0.36 2.6479,-0.4275 -0.1704,-0.2849 -1.9466,-2.0274 -1.8406,-2.3 0.5032,-0.116 2.469,-0.2903 2.6683,-0.5806 l -0.2061,-0.087 c -1.021,-0.4314 -1.7566,-0.9726 -2.7162,-1.4933 0.3479,-0.1329 2.0577,-0.3535 2.1816,-0.5459 -0.3903,-0.1319 -0.9578,-0.2563 -1.3839,-0.3773 -0.0876,-0.1452 -0.0451,0.0266 -0.0635,-0.1304 0.3087,-0.2767 1.0982,-2.1357 1.1129,-2.1413 -0.131,-0.0856 -2.1067,-0.2668 -2.6172,-0.2594 0.1706,-0.2585 0.9416,-0.9748 1.3101,-1.5276 -0.5578,0.0644 -1.0244,-0.0728 -1.4139,-0.1088 0,-0.7019 0.6463,-1.8085 0.5743,-2.1578 l -0.2199,0.0666 c -0.3002,0.0908 -1.1268,0.2705 -1.4537,0.3589 -0.3152,-0.7622 0.7005,-1.9669 -0.6539,-1.1625 -0.0445,-0.4527 -0.0737,-2.4871 -0.0935,-2.5832 -0.1698,0 -1.1682,0.8062 -1.4128,0.8722 -0.0683,-0.2335 0.608,-1.8785 0.7469,-2.5268 0.0496,-0.2327 0.0485,-0.1233 -0.0147,-0.2766 -0.241,-0.0119 -0.6254,0.1712 -0.8113,0.2231 l -0.0199,0.1899 -0.003,0.0278 -0.0187,0.1726 -0.006,0.0485 -0.008,0.0686 -0.0142,0.1216 -0.005,0.034 -0.0164,0.1355 -0.0116,0.0921 -0.007,0.0425 -0.0207,0.1616 -0.007,0.0488 -0.0213,0.1547 -0.008,0.0564 -0.0105,0.0763 -0.0241,0.1604 -0.008,0.0556 -0.0284,0.1842 -0.005,0.0341 -0.0334,0.2089 -0.001,0.0116 -0.0365,0.2236 -10e-4,0.01 -0.0357,0.2157 -0.006,0.0337 -0.0318,0.1933 -0.01,0.0584 -0.0303,0.1724 -0.0139,0.0822 -0.0267,0.1513 -0.0187,0.1061 -0.0235,0.1295 -0.0227,0.1313 -0.0198,0.106 -0.004,0.0215 -0.04,0.2191 -0.0343,0.1826 -0.0107,0.0592 -0.0394,0.2095 -0.006,0.0354 -0.0459,0.2356 -0.002,0.0113 -0.0471,0.2486 -0.003,0.0151 -0.045,0.2369 -0.009,0.04 -0.0411,0.2132 -0.0128,0.066 -0.0368,0.1899 -0.0513,0.2577 -0.0233,0.1202 -0.0283,0.1395 -0.0513,0.2619 -0.0352,0.176 -0.0176,0.0887 -0.0402,0.2036 -0.0131,0.0623 -0.0456,0.2322 -0.008,0.0365 -0.0513,0.2611 -0.002,0.008 0,10e-4 c 0.0303,0.157 0.047,0.318 0.047,0.4844 l 0,3.8174 c 0,0.9352 -0.5125,1.7564 -1.2713,2.1966 l -0.0127,0.0788 -0.0134,0.0785 -0.0133,0.0785 -0.002,0.0156 -0.0113,0.0641 -0.0125,0.0794 -0.0133,0.0785 -0.0128,0.0802 -0.007,0.042 -0.007,0.0365 -0.0128,0.0797 -0.013,0.0796 -0.0122,0.0794 -0.0113,0.07 -0.002,0.01 -0.0128,0.08 -0.0246,0.1601 -0.0131,0.08 -0.002,0.0181 -0.0105,0.0618 -0.0119,0.0805 -0.0125,0.0802 -0.0119,0.0808 -0.007,0.0448 -0.006,0.0354 -0.0119,0.0805 -0.0224,0.1469 -0.003,0.0156 -0.0102,0.0734 -10e-4,0.007 -0.0119,0.0808 -0.0119,0.0813 -0.0125,0.0805 -0.0125,0.0817 -0.002,0.0209 -0.009,0.0604 -0.0119,0.0816 -0.0301,0.2121 -0.005,0.0331 -0.0111,0.0814 -0.0121,0.0819 -0.0111,0.0817 -0.0111,0.0773 -5e-4,0.005 -0.0111,0.082 -0.0116,0.0822 -0.0105,0.0827 -0.0113,0.0814 -0.003,0.0244 -0.008,0.0584 -0.0105,0.0827 -0.0116,0.0822 -0.0113,0.0834 -0.006,0.0513 -0.004,0.0306 -0.0102,0.0831 -0.0102,0.0833 -0.0114,0.0828 -0.0102,0.0808 -6e-4,0.003 -0.0102,0.083 -0.0204,0.1664 -0.0105,0.0834 -0.003,0.0258 -0.007,0.0572 -0.01,0.0836 -0.0201,0.1679 -0.006,0.0549 -0.004,0.0287 -0.009,0.0839 -0.0295,0.2523 c -0.5751,4.7939 -8.7894,7.8471 -12.7928,7.8471 -3.7003,0 -11.2113,-2.4315 -12.054,-7.6711 l -0.0105,-0.0884 -0.0102,-0.0876 -0.009,-0.0876 -0.0108,-0.087 -0.001,-0.008 -0.009,-0.0799 -0.01,-0.0868 -0.01,-0.0876 -0.0108,-0.0876 -0.002,-0.0133 -0.008,-0.0734 -0.01,-0.0856 -0.0103,-0.0876 -0.0113,-0.0859 -0.001,-0.0207 -0.009,-0.0649 -0.0105,-0.0867 -0.01,-0.0856 -0.0102,-0.0859 -0.003,-0.0267 -0.007,-0.0589 -0.0108,-0.0862 -0.0102,-0.0853 -0.0107,-0.0851 -0.004,-0.0334 -0.006,-0.051 -0.021,-0.1701 -0.0108,-0.0848 -0.004,-0.0391 -0.006,-0.0448 -0.0107,-0.0853 -0.0105,-0.0831 -0.0111,-0.0853 -0.005,-0.0451 -0.005,-0.0388 -0.0108,-0.083 -0.011,-0.0845 -0.0102,-0.0836 -0.006,-0.0511 -0.004,-0.0323 -0.0108,-0.0828 -0.0105,-0.0833 -0.0104,-0.0822 -0.009,-0.0587 -0.003,-0.0241 -0.011,-0.0833 -0.0108,-0.0828 -0.0105,-0.0825 -0.009,-0.064 -0.002,-0.0182 -0.011,-0.081 -0.0111,-0.0831 -0.0105,-0.0813 -0.0102,-0.0703 -0.001,-0.0117 -0.0102,-0.0813 -0.0122,-0.0817 -0.0105,-0.0802 -0.01,-0.0762 -0.002,-0.005 -0.0216,-0.1625 -0.0113,-0.081 -0.011,-0.0805 0,-3e-4 -0.0102,-0.0794 -0.0111,-0.0808 -0.0116,-0.0796 -0.0111,-0.0805 -8e-4,-0.007 -0.0108,-0.0731 -0.0111,-0.0786 -0.0447,-0.3174 -0.0105,-0.08 c -0.8093,-0.4252 -1.3649,-1.2739 -1.3649,-2.2476 l 0,-3.8174 c 0,-0.407 0.0978,-0.7926 0.2707,-1.1347 l -0.0335,-0.216 -0.003,-0.0119 -0.0346,-0.2271 -0.003,-0.0249 -0.0309,-0.2001 -0.009,-0.061 -0.0241,-0.1621 -0.0151,-0.0972 -0.0192,-0.1242 -0.0196,-0.1327 -0.0122,-0.087 -0.0252,-0.1678 -0.008,-0.051 -0.0297,-0.2016 -0.002,-0.0158 -0.0317,-0.2152 -0.003,-0.0201 -0.0277,-0.1933 -0.007,-0.0547 -0.0233,-0.1574 -0.0127,-0.089 -0.0167,-0.1213 -0.0179,-0.1225 -0.0122,-0.0861 -0.0207,-0.1556 -0.008,-0.0519 -0.0258,-0.1882 -0.002,-0.017 -0.0278,-0.2047 -10e-4,-0.0162 -0.025,-0.1862 -0.007,-0.0496 -0.0193,-0.1511 -0.0102,-0.0822 -0.0153,-0.1171 -0.0145,-0.1131 -0.0102,-0.0856 -0.0181,-0.1443 -0.006,-0.051 -0.0221,-0.176 -0.002,-0.0196 -0.0224,-0.193 -0.002,-0.0125 -0.021,-0.178 -0.004,-0.0448 -0.0167,-0.1463 -0.007,-0.0739 c -0.0165,-0.1463 -0.0318,-0.2912 -0.0456,-0.4354 -0.2195,-0.0363 -0.5789,-0.0998 -1.1294,-0.1755 l -0.1593,0.007 c -0.4926,0.0207 0.4,0.7894 0.4255,1.3597 -0.2143,0 -1.506,0.1262 -1.6659,0.2206 0.3645,0.2744 1.3467,0.5771 1.3603,1.0562 -0.4382,0.0527 -2.6158,0.324 -2.7612,0.324 -0.0397,0.4629 1.1735,1.4006 1.5936,1.527 -0.8135,0.0734 -1.6452,0.3614 -2.4298,0.604 0.007,0.1625 1.5834,1.1679 1.9292,1.696 -0.1332,0.0349 -1.4666,0.3371 -1.4933,0.3342 -0.0688,-0.006 -0.2446,0.0802 -0.5604,0.1199 -0.0119,0.3524 1.2736,1.2283 1.3213,1.4908 -0.4261,0.1519 -2.2669,0.7965 -2.4279,0.9544 0.0187,0.2747 1.715,1.5262 1.9874,1.5962 -0.7657,0 -1.2617,-0.0564 -2.077,0.1667 -0.0768,0.4215 1.4343,0.7007 1.7765,0.837 -0.2228,0.2101 -1.4879,0.917 -1.6404,1.15 0.1389,0.2376 0.841,0.3252 0.9533,0.4938 -0.4791,-0.1247 -1.9749,0.8062 -2.2539,0.9372 0.2931,0.1888 1.4332,0.2517 1.4009,0.6565 -0.3997,-0.0377 -1.9576,1.33 -1.9468,1.7606 0.6117,0 1.3652,0.0802 1.8666,0.0802 -0.002,0.007 -1.4332,2.0747 -1.4332,2.2269 2.4194,0.453 0.9394,-0.7682 1.5202,2.8542 0.0669,0.0213 1.2546,-0.7713 1.5877,-0.667 0.1191,1.1588 -0.161,2.3752 0.1069,3.5076 0.0144,-0.003 0.9425,-0.7758 1.0261,-0.8456 -0.0893,0.417 0.0853,1.5857 0.0732,1.7258 0.3373,0 1.9428,-0.4312 2.3941,-0.5262 0.0848,0.1973 -0.1086,0.9032 0.1006,1.2391 0.7915,0 1.3213,-1.086 1.6597,0.5746 0.0224,0.1091 0.106,0.7024 0.127,0.7072 0.0281,-0.0448 0.8473,-0.9193 0.8473,-0.9193 -0.055,0.254 0.6664,0.9681 0.8725,1.0049 0,-0.2894 0.1667,-0.2656 0.2406,-0.4799 0.0397,-0.114 0.0454,-0.1202 0.1599,-0.1596 z m -3.4787,-28.9814 c -0.2639,-0.1125 -0.4915,-0.2044 -0.602,-0.2276 0.0737,0.7574 0.43,1.224 0.7024,1.4944 l -0.002,-0.0207 -0.002,-0.0204 -0.002,-0.0199 -0.002,-0.0209 -0.002,-0.0202 -0.001,-0.0195 -0.002,-0.021 0,0 -0.002,-0.0198 -0.003,-0.0204 -0.002,-0.021 -0.001,-0.0199 -0.002,-0.0204 -0.002,-0.0195 -0.001,-0.0204 -0.002,-0.0204 -10e-4,-0.0179 0,-0.003 -0.002,-0.019 -0.002,-0.0207 -0.003,-0.0394 -10e-4,-0.0199 -0.005,-0.0603 -0.002,-0.0173 -0.002,-0.0227 -0.002,-0.0198 -0.006,-0.0803 -0.002,-0.019 -0.001,-0.0204 -10e-4,-0.0164 -5e-4,-0.003 -0.007,-0.0987 -0.002,-0.0187 -9e-4,-0.0198 -0.002,-0.0196 -0.002,-0.0164 -5e-4,-0.003 -9e-4,-0.019 -0.002,-0.0201 -5e-4,-0.0193 -0.002,-0.0196 -10e-4,-0.0195 -0.001,-0.0196 -9e-4,-0.0196 -0.002,-0.0195 -9e-4,-0.0145 -2e-4,-0.005 -0.002,-0.0192 -0.003,-0.0386 -0.001,-0.0184 -0.003,-0.0394 -10e-4,-0.0193 -0.002,-0.0187 -6e-4,-0.0147 0,-0.005 -10e-4,-0.0196 -0.001,-0.0196 -10e-4,-0.0178 z" />
      <path
         inkscape:connector-curvature="0"
         id="path4244"
         style="fill:#ffffff;fill-opacity:1;fill-rule:evenodd;stroke:none"
         d="m 503.0745,616.0436 -8.5173,0 c -0.3427,0 -0.6227,-0.28 -0.6227,-0.6227 l 0,-4.036 c 0,-0.3427 0.28,-0.6228 0.6227,-0.6228 l 8.5173,0 c 0.3427,0 0.6228,0.2801 0.6228,0.6228 l 0,4.036 c 0,0.3427 -0.2801,0.6227 -0.6228,0.6227" />
      <path
         inkscape:connector-curvature="0"
         id="path4246"
         style="fill:#ffffff;fill-opacity:1;fill-rule:evenodd;stroke:none"
         d="m 479.1869,616.0436 8.5173,0 c 0.3427,0 0.6228,-0.28 0.6228,-0.6227 l 0,-4.036 c 0,-0.3427 -0.2801,-0.6228 -0.6228,-0.6228 l -8.5173,0 c -0.3427,0 -0.6227,0.2801 -0.6227,0.6228 l 0,4.036 c 0,0.3427 0.28,0.6227 0.6227,0.6227" />
      <path
         inkscape:connector-curvature="0"
         id="path4248"
         style="fill:#444443;fill-opacity:1;fill-rule:evenodd;stroke:none"
         d="m 478.7246,622.9012 c 0.8427,5.2396 8.3537,7.6711 12.054,7.6711 4.0034,0 12.2177,-3.0532 12.7928,-7.8471 0.2018,-1.7955 0.4592,-3.5391 0.7404,-5.2172 0.7588,-0.4402 1.2713,-1.2614 1.2713,-2.1966 l 0,-3.8174 c 0,-0.1664 -0.0167,-0.3274 -0.047,-0.4856 0.18,-0.9005 0.3535,-1.7705 0.5133,-2.6027 l 0,5e-4 0.002,-0.007 c 0.3518,-1.8311 0.639,-3.4843 0.783,-4.922 0.1859,-0.0519 0.5703,-0.235 0.8113,-0.2231 0.0632,0.1533 0.0643,0.0439 0.0147,0.2766 -0.1389,0.6483 -0.8152,2.2933 -0.7469,2.5268 0.2446,-0.066 1.243,-0.8722 1.4128,-0.8722 0.0198,0.0961 0.049,2.1305 0.0935,2.5832 1.3544,-0.8044 0.3387,0.4003 0.6539,1.1625 0.3269,-0.0884 1.1535,-0.2681 1.4537,-0.3589 l 0.2199,-0.0666 c 0.072,0.3493 -0.5743,1.4559 -0.5743,2.1578 0.3895,0.036 0.8561,0.1732 1.4139,0.1088 -0.3685,0.5528 -1.1395,1.2691 -1.3101,1.5276 0.5105,-0.007 2.4862,0.1738 2.6172,0.2594 -0.0147,0.006 -0.8042,1.8646 -1.1129,2.1413 0.0184,0.157 -0.0241,-0.0148 0.0635,0.1304 0.4261,0.121 0.9936,0.2454 1.3839,0.3773 -0.1239,0.1924 -1.8337,0.413 -2.1816,0.5459 0.9596,0.5207 1.6952,1.0619 2.7162,1.4933 l 0.2061,0.087 c -0.1993,0.2903 -2.1651,0.4646 -2.6683,0.5806 -0.106,0.2726 1.6702,2.0151 1.8406,2.3 -0.8487,0.0675 -1.8559,0.1239 -2.6479,0.4275 -0.0105,0.0819 0,0.1346 0,0.2194 0.3524,0.193 1.3813,1.1038 1.4338,1.5071 -0.1338,0.0414 -1.2356,0.1883 -1.5798,0.2679 -0.2222,0.481 1.4707,0.826 1.4261,1.3462 -0.4532,0 -2.3346,0.1556 -2.6719,0.254 0.3268,0.6783 0.9638,1.1174 0.8394,1.387 -0.436,0.1 -0.3952,0.1848 -0.9865,0.2599 0.0283,0.2985 1.0003,1.2368 1.1596,1.6739 0.1429,0.0226 0.1545,0.004 0.1545,0.1459 -0.2789,0.1681 -1.9545,-0.3988 -2.0267,-0.3988 0.43,0.8753 0.4195,1.1999 0.7098,2.0923 -0.688,0.1689 -1.73,-0.5741 -1.912,-0.1327 0.0967,0.1692 0.269,0.3617 0.2526,0.5601 -0.5553,0 -1.1149,-0.0802 -1.7601,-0.0802 0,0.6902 0.072,1.0471 0.4003,1.728 -0.2194,0.3966 -1.169,0.2197 -1.5571,0.2764 -0.1729,0.424 0.4873,0.9833 0.4686,1.1035 -1.8193,0.2721 -1.3164,-1.8431 -1.8862,0.5666 -0.0153,0.005 -0.7444,-0.208 -0.9462,-0.233 0,0.235 -0.0207,0.5057 0.0204,0.7342 -1.2963,0.616 -2.3893,-2.613 -1.9488,0.773 -1.209,0.3753 -2.3667,-2.3527 -2.8066,0.6534 -0.6826,-0.1579 -1.2282,-0.9071 -1.5735,-0.7872 -0.0397,0.1928 -0.2838,0.576 -0.3467,0.8527 -0.2795,0.1284 -1.091,-0.506 -1.3476,-0.6398 -0.2489,0.1434 -0.3248,0.4329 -0.4592,0.6613 l -0.1213,0.205 c -0.1072,-0.0927 -0.2069,-0.1318 -0.2716,-0.205 -1.3138,-1.5114 -0.845,0.7059 -1.5208,0.7059 -0.1122,-0.1707 -0.953,-1.1058 -1.0479,-1.1058 -0.0275,0.0501 -0.0326,0.0785 -0.1398,0.1822 -0.5037,1.9344 -1.6945,-0.5028 -2.2082,-0.5028 -0.2021,0.2814 -0.3189,0.2803 -0.4067,0.7061 -0.37,0 -1.5098,-1.1965 -1.6597,-1.287 -0.3277,0.1296 -0.4425,0.4043 -0.4944,0.7739 -0.2775,-0.0238 -1.1766,-1.2331 -1.3595,-1.2331 -0.1145,0.1435 -0.3739,0.6064 -0.4742,0.7793 -0.2225,-0.0207 -0.9987,-1.078 -1.0534,-1.3394 -0.0802,-0.011 -0.0479,-0.0247 -0.1666,0.0867 -1.3862,1.2932 -0.3666,1.0761 -1.5279,-0.3274 -0.2679,0.0735 -0.3155,0.5389 -0.4127,0.7864 -0.1455,-0.4459 -0.8436,-1.3176 -1.16,-1.5931 -0.1145,0.0394 -0.1202,0.0456 -0.1599,0.1596 -0.0739,0.2143 -0.2406,0.1905 -0.2406,0.4799 -0.2061,-0.0368 -0.9275,-0.7509 -0.8725,-1.0049 0,0 -0.8192,0.8745 -0.8473,0.9193 -0.021,-0.005 -0.1046,-0.5981 -0.127,-0.7072 -0.3384,-1.6606 -0.8682,-0.5746 -1.6597,-0.5746 -0.2092,-0.3359 -0.0158,-1.0418 -0.1006,-1.2391 -0.4513,0.095 -2.0568,0.5262 -2.3941,0.5262 0.0121,-0.1401 -0.1625,-1.3088 -0.0732,-1.7258 -0.0836,0.0698 -1.0117,0.843 -1.0261,0.8456 -0.2679,-1.1324 0.0122,-2.3488 -0.1069,-3.5076 -0.3331,-0.1043 -1.5208,0.6883 -1.5877,0.667 -0.5808,-3.6224 0.8992,-2.4012 -1.5202,-2.8542 0,-0.1522 1.4309,-2.2198 1.4332,-2.2269 -0.5014,0 -1.2549,-0.0802 -1.8666,-0.0802 -0.0108,-0.4306 1.5471,-1.7983 1.9468,-1.7606 0.0323,-0.4048 -1.1078,-0.4677 -1.4009,-0.6565 0.279,-0.131 1.7748,-1.0619 2.2539,-0.9372 -0.1123,-0.1686 -0.8144,-0.2562 -0.9533,-0.4938 0.1525,-0.233 1.4176,-0.9399 1.6404,-1.15 -0.3422,-0.1363 -1.8533,-0.4155 -1.7765,-0.837 0.8153,-0.2231 1.3113,-0.1667 2.077,-0.1667 -0.2724,-0.07 -1.9687,-1.3215 -1.9874,-1.5962 0.161,-0.1579 2.0018,-0.8025 2.4279,-0.9544 -0.0477,-0.2625 -1.3332,-1.1384 -1.3213,-1.4908 0.3158,-0.0397 0.4916,-0.1258 0.5604,-0.1199 0.0267,0.003 1.3601,-0.2993 1.4933,-0.3342 -0.3458,-0.5281 -1.9224,-1.5335 -1.9292,-1.696 0.7846,-0.2426 1.6163,-0.5306 2.4298,-0.604 -0.4201,-0.1264 -1.6333,-1.0641 -1.5936,-1.527 0.1454,0 2.323,-0.2713 2.7612,-0.324 -0.0136,-0.4791 -0.9958,-0.7818 -1.3603,-1.0562 0.1599,-0.0944 1.4516,-0.2206 1.6659,-0.2206 -0.0255,-0.5703 -0.9181,-1.339 -0.4255,-1.3597 l 0.1593,-0.007 c 0.5505,0.0757 0.9099,0.1392 1.1294,0.1755 0.1272,1.2789 0.3149,2.6665 0.5382,4.1703 l 0.007,0.0482 9e-4,-3e-4 c 0.0728,0.4932 0.1494,0.9975 0.2296,1.5151 -0.1729,0.3421 -0.2707,0.7277 -0.2707,1.1347 l 0,3.8174 c 0,0.9737 0.5556,1.8224 1.3649,2.2476 0.2384,1.6855 0.4708,3.4642 0.6817,5.3422 z m 27.8762,-23.6188 c -0.0774,-0.2132 -0.1681,-0.4091 -0.2747,-0.5885 -3.9628,-5.4527 -10.0749,-6.7499 -15.2246,-8.6239 -5.0995,1.8287 -14.1021,5.1075 -14.9142,8.8337 -0.0269,0.1567 -0.051,0.316 -0.0726,0.4782 -0.3948,0.265 -0.6893,0.6261 -0.8708,1.0329 -1.0587,0.0862 -1.9774,0.8589 -2.2002,1.9525 -0.0145,0.068 -0.0247,0.1364 -0.0332,0.2044 -0.4028,0.3356 -0.6253,0.8127 -0.699,1.4122 -0.4365,0.2823 -0.7552,0.6829 -0.9374,1.1347 -0.9284,0.3509 -1.5894,1.2487 -1.5894,2.2998 l 8e-4,0.0379 0,0.01 3e-4,0.0195 c 0.001,0.0706 0.005,0.1404 0.0128,0.2087 -0.6355,0.5527 -0.9598,1.4108 -0.8119,2.2688 0.0315,0.2041 0.0822,0.3867 0.1514,0.5545 -0.1834,0.3316 -0.2911,0.7095 -0.3036,1.1058 l -10e-4,0 c -0.005,0.1686 0.004,0.3277 0.0244,0.4802 -0.163,0.0972 -0.2994,0.1927 -0.3912,0.2831 -0.5358,0.5211 -0.7821,1.228 -0.7367,1.9197 l -0.003,0 c 0.005,0.0669 0.013,0.1343 0.0244,0.2009 0.021,0.1381 0.0527,0.2744 0.0966,0.4068 -0.0884,0.1996 -0.1505,0.4102 -0.1839,0.6268 -0.1083,0.6548 -0.0363,1.1772 0.1545,1.5993 -1.0582,0.5334 -1.5693,1.7385 -1.2535,2.8508 -0.3416,0.4983 -0.5828,1.027 -0.6285,1.5071 -0.003,0.0448 -0.006,0.0896 -0.008,0.1344 l -0.001,0 -10e-4,0.0241 c -0.0224,0.6429 0.2053,1.2368 0.5956,1.6883 -0.1063,0.2719 -0.1721,0.5159 -0.1721,0.705 0,0.9896 0.5857,1.8428 1.4293,2.2326 0.028,0.2999 0.0708,0.6338 0.1298,1.006 0.1429,0.902 0.7628,1.6106 1.5605,1.91 0.0238,0.356 0.0717,0.7219 0.1632,1.1024 0.1871,0.8087 0.7543,1.4292 1.4675,1.7195 0.404,0.585 1.0579,0.9901 1.8207,1.0536 0.0669,0.005 0.1347,0.008 0.2019,0.008 l 0,0.001 c 0.0413,0 0.0856,-0.001 0.1329,-0.004 0.0794,-0.004 0.1579,-0.0125 0.2356,-0.0241 0.1012,-0.013 0.2092,-0.0309 0.3234,-0.051 0.3753,0.4079 0.8702,0.6658 1.3966,0.7546 0.2619,0.5907 0.7552,1.1029 1.7805,1.2804 0.4076,0.07 0.8093,0.0337 1.178,-0.087 0.1551,0.0714 0.3048,0.1247 0.4425,0.1536 0.0315,0.007 0.0635,0.0122 0.0958,0.019 l 0,8e-4 0.004,0 0.006,6e-4 c 0.3716,0.4992 0.9198,0.8351 1.5219,0.9465 0.241,0.1587 0.5675,0.2835 1.0347,0.383 l -9e-4,0.003 c 0.5669,0.1216 0.9641,0.1375 1.2818,0.0592 0.3399,0.2024 0.7022,0.3399 1.0696,0.3751 0.1887,0.0158 0.3733,0.0116 0.5527,-0.0131 0.3648,0.2498 0.7861,0.4312 1.2997,0.4757 0.2415,0.0198 0.4768,0.004 0.7021,-0.0431 0.5023,0.3234 1.0667,0.5658 1.6538,0.5658 0.1068,0 0.2117,-0.007 0.3149,-0.0193 0.2857,0.1947 0.6154,0.3583 1.0111,0.4615 0.5488,0.1426 1.0661,0.1834 1.5341,0.0881 0.2988,0.1231 0.6191,0.1866 0.9425,0.1871 l 0,0.003 c 0.8431,0 1.4055,-0.1964 1.7981,-0.5082 0.3914,-0.001 0.7798,-0.0955 1.1313,-0.2795 0.5428,0.1392 1.152,0.1366 1.8161,-0.1687 0.1089,0.0352 0.2254,0.0675 0.3478,0.0953 0.8408,0.1933 1.6798,-0.0723 2.2567,-0.6313 0.5119,0.1369 1.1015,0.1525 1.8184,-0.07 0.3552,-0.1091 0.6681,-0.2931 0.9269,-0.5275 0.4065,-0.0233 0.8536,-0.1355 1.3471,-0.3705 0.2075,-0.0978 0.394,-0.2206 0.559,-0.3629 l 0.0405,-0.013 c 0.3736,-0.0609 0.8045,-0.4252 0.8376,-0.4371 1.558,-0.0641 2.187,-0.5576 2.6513,-1.6906 0.0745,-0.0451 0.9125,-0.4813 1.1551,-1.5908 0.1395,-0.0402 0.1854,-0.0981 0.3356,-0.1678 0.2665,-0.0544 2.1657,0.1352 2.7355,-2.0038 0.9986,-0.411 1.3257,-1.5063 1.3266,-2.1677 l 0.007,0 c 0,-0.3679 -0.005,-0.6769 -0.0227,-0.9382 0.0448,-0.184 0.0876,-0.3753 0.131,-0.5641 0.799,-0.3821 1.3589,-1.1841 1.3957,-2.1203 0.0179,-0.2878 0.003,-0.5451 -0.0379,-0.7756 0.1252,-0.3033 0.1904,-0.6324 0.1862,-0.9697 0.7843,-0.4575 1.2832,-1.3357 1.2107,-2.3029 -0.0182,-0.2591 -0.0771,-0.5054 -0.1698,-0.7345 0.2225,-0.1607 0.4181,-0.3534 0.5757,-0.5819 0.6882,-1.0089 0.5216,-2.3477 -0.3376,-3.1618 0.0969,-0.6865 -0.1006,-1.3929 -0.5542,-1.9287 0.2747,-0.568 0.3305,-1.2418 0.1046,-1.883 -0.1871,-0.529 -0.5357,-0.9527 -0.9706,-1.2368 l 6e-4,-10e-4 c -0.0235,-0.017 -0.0479,-0.0306 -0.0754,-0.0465 -0.0525,-0.0309 -0.1057,-0.0604 -0.1593,-0.0879 -0.0921,-0.551 -0.3697,-1.0695 -0.8153,-1.4533 0.0335,-0.2837 0.0278,-0.5819 -0.0411,-0.9113 -0.2151,-1.0375 -1.0579,-1.7842 -2.0491,-1.9273 -0.0961,-0.1449 -0.197,-0.2775 -0.3025,-0.3966 -0.0119,-0.4359 -0.0281,-0.7894 -0.0686,-0.9873 -0.0907,-0.4445 -0.2965,-0.8371 -0.5797,-1.1506 0.004,-0.087 0.004,-0.1856 -0.003,-0.3143 -0.002,-0.0309 -0.004,-0.0624 -0.007,-0.0922 -0.0292,-0.4096 -0.1015,-0.5927 -0.2253,-0.8305 -0.1727,-0.4122 -0.4439,-0.7532 -0.7756,-1.0057 -0.008,-0.0411 -0.0167,-0.0817 -0.0261,-0.1216 -0.2639,-1.1339 -1.2747,-1.8993 -2.3907,-1.8981 l 0,-0.003 c -0.0403,0 -0.0794,8e-4 -0.1182,0.003 z m -30.5606,3.6924 c 0.0249,0.4436 0.0612,0.9017 0.1063,1.3762 -0.2724,-0.2704 -0.6287,-0.737 -0.7024,-1.4944 0.1105,0.0232 0.3381,0.1151 0.602,0.2276 l -0.006,-0.1094 z m 10.1735,18.2333 c 0.4941,0.1196 0.9902,-0.1832 1.1084,-0.6764 0.1199,-0.4941 -0.1831,-0.9898 -0.6767,-1.1083 -1.2591,-0.3059 -2.1585,-0.6092 -2.9831,-1.0616 -0.2741,-0.1508 -0.5437,-0.3195 -0.8198,-0.5125 l 4.8328,0 c 1.3958,0 2.5367,-1.1415 2.5367,-2.5379 l 0,-0.7106 c 0.2758,0.1474 0.5689,0.2265 0.8685,0.2265 0.3365,0 0.6633,-0.0992 0.9686,-0.2838 l 0,0.7679 c 0,1.3964 1.1418,2.5379 2.5376,2.5379 l 4.561,0 c -0.2753,0.193 -0.5454,0.3617 -0.819,0.5125 -0.8246,0.4524 -1.7232,0.7557 -2.9837,1.0616 -0.4927,0.1185 -0.796,0.6142 -0.6761,1.1083 0.1188,0.4932 0.6154,0.796 1.1089,0.6764 1.4264,-0.3444 2.4585,-0.6962 3.437,-1.2331 0.7206,-0.396 1.3952,-0.8827 2.1603,-1.5316 -0.1681,1.0962 -0.3172,2.2043 -0.4368,3.312 -0.47,3.8812 -6.8879,6.0512 -10.1597,6.0512 -3.024,0 -8.5708,-1.7465 -9.3529,-5.4669 -0.1312,-1.2121 -0.2803,-2.4106 -0.4385,-3.5881 0.6174,0.4983 1.1866,0.8929 1.7898,1.2234 0.978,0.5369 2.0109,0.8887 3.4367,1.2331 z m 16.9526,-12.2485 c -0.0405,-0.003 -0.0802,-0.003 -0.1204,-0.003 l -8.4592,0 c -1.3958,0 -2.5376,1.1416 -2.5376,2.5376 l 0,0.4059 c -0.0805,0.125 -0.1695,0.233 -0.2673,0.3238 -0.2072,0.191 -0.4487,0.2962 -0.7013,0.2962 -0.2715,0 -0.5289,-0.1228 -0.7452,-0.3399 -0.0428,-0.0434 -0.0833,-0.0899 -0.1233,-0.1397 l 0,-0.5463 c 0,-1.396 -1.1409,-2.5376 -2.5367,-2.5376 l -8.1924,0 c -0.6092,-3.9155 -1.0129,-7.1112 -0.7129,-9.072 0.6868,-2.8751 8.1515,-5.3141 12.3193,-6.8694 4.2081,1.5939 9.5919,2.6427 12.8053,6.9854 0.7234,1.3408 0.1363,4.6786 -0.7283,8.9592 z m -8.6088,7.0837 7.2159,0 1.3014,0 c 0.3421,0 0.6222,-0.2803 0.6222,-0.6224 l 0,-4.0357 c 0,-0.343 -0.2801,-0.6234 -0.6222,-0.6234 l -0.2758,0 -8.2415,0 c -0.3424,0 -0.6219,0.2804 -0.6219,0.6234 l 0,4.0357 c 0,0.3421 0.2795,0.6224 0.6219,0.6224 z m -13.9575,0 7.1033,0 c 0.3436,0 0.6239,-0.2803 0.6239,-0.6224 l 0,-4.0357 c 0,-0.343 -0.2803,-0.6234 -0.6239,-0.6234 l -7.9344,0 -0.5814,0 c -0.343,0 -0.6231,0.2804 -0.6231,0.6234 l 0,4.0357 c 0,0.3421 0.2801,0.6224 0.6231,0.6224 l 1.4125,0 z" />
      <path
         inkscape:connector-curvature="0"
         id="path4250"
         style="fill:#ffffff;fill-opacity:1;fill-rule:evenodd;stroke:none"
         d="m 471.3341,632.3085 c -0.0312,0.003 -0.0598,0.005 -0.0822,0.005 0.002,-0.0184 0,-0.0541 -0.004,-0.1006 -0.0513,-0.0615 -0.1009,-0.1262 -0.1477,-0.193 -0.3846,-0.1562 -0.7259,-0.4091 -0.9893,-0.7345 -0.0439,0.0354 -0.0705,0.0561 -0.0734,0.0567 -0.0167,-0.072 -0.0314,-0.144 -0.0445,-0.2163 -0.1655,-0.2432 -0.2897,-0.5207 -0.3603,-0.8254 -0.0915,-0.3805 -0.1394,-0.7464 -0.1632,-1.1024 -0.5083,-0.1902 -0.9443,-0.5474 -1.2311,-1.0154 -0.0366,0.0173 -0.0615,0.0266 -0.0698,0.0244 l -0.0317,-0.2092 c -0.1094,-0.2183 -0.1877,-0.4564 -0.2279,-0.7098 -0.059,-0.3722 -0.1018,-0.7061 -0.1298,-1.006 -0.5329,-0.2458 -0.9621,-0.6772 -1.207,-1.2107 l -0.0817,-0.0153 c 0,-0.0148 0.0119,-0.0474 0.0358,-0.0927 -0.1134,-0.2826 -0.1764,-0.5908 -0.1764,-0.9139 0,-0.1891 0.0658,-0.4331 0.1721,-0.705 -0.2089,-0.2421 -0.3716,-0.5244 -0.474,-0.8342 l -0.0362,0 c 0,-0.0247 0.003,-0.0505 0.0113,-0.0797 -0.072,-0.2449 -0.106,-0.5057 -0.0967,-0.7744 l 10e-4,-0.0241 0.001,0 c 10e-4,-0.0448 0.004,-0.0896 0.008,-0.1344 0.0457,-0.4801 0.2869,-1.0088 0.6285,-1.5071 -0.3158,-1.1123 0.1953,-2.3174 1.2535,-2.8508 -0.1908,-0.4221 -0.2628,-0.9445 -0.1545,-1.5993 0.0334,-0.2166 0.0955,-0.4272 0.1839,-0.6268 -0.0439,-0.1324 -0.0756,-0.2687 -0.0966,-0.4068 -0.0114,-0.0666 -0.0196,-0.134 -0.0244,-0.2009 l 0.003,0 c -0.0454,-0.6917 0.2009,-1.3986 0.7367,-1.9197 0.0918,-0.0904 0.2282,-0.1859 0.3912,-0.2831 -0.0207,-0.1525 -0.0295,-0.3116 -0.0244,-0.4802 l 10e-4,0 c 0.0125,-0.3963 0.1202,-0.7742 0.3036,-1.1058 -0.0692,-0.1678 -0.1199,-0.3504 -0.1514,-0.5545 -0.1479,-0.858 0.1764,-1.7161 0.8119,-2.2688 -0.008,-0.0763 -0.0114,-0.1514 -0.0131,-0.2282 l -8e-4,-0.0476 c 0,-1.0511 0.661,-1.9489 1.5894,-2.2998 0.1822,-0.4518 0.5009,-0.8524 0.9374,-1.1347 0.0737,-0.5995 0.2962,-1.0766 0.699,-1.4122 0.009,-0.068 0.0187,-0.1364 0.0332,-0.2044 0.2228,-1.0936 1.1415,-1.8663 2.2002,-1.9525 0.1815,-0.4068 0.476,-0.7679 0.8708,-1.0329 0.0216,-0.1622 0.0457,-0.3215 0.0726,-0.4782 0.8121,-3.7262 9.8147,-7.005 14.9142,-8.8337 5.1497,1.874 11.2618,3.1712 15.2246,8.6239 0.1066,0.1794 0.1973,0.3753 0.2747,0.5885 0.0388,-0.003 0.0779,-0.003 0.1182,-0.003 l 0,0.003 c 1.116,-0.001 2.1268,0.7642 2.3907,1.8981 0.009,0.0399 0.0182,0.0805 0.0261,0.1216 0.3317,0.2525 0.6029,0.5935 0.7756,1.0057 0.1238,0.2378 0.1961,0.4209 0.2253,0.8305 0.003,0.0298 0.005,0.0613 0.007,0.0922 0.007,0.1287 0.007,0.2273 0.003,0.3143 0.2832,0.3135 0.489,0.7061 0.5797,1.1506 0.0405,0.1979 0.0567,0.5514 0.0686,0.9873 0.1055,0.1191 0.2064,0.2517 0.3025,0.3966 0.9912,0.1431 1.834,0.8898 2.0491,1.9273 0.0689,0.3294 0.0746,0.6276 0.0411,0.9113 0.4456,0.3838 0.7232,0.9023 0.8153,1.4533 0.0536,0.0275 0.1068,0.057 0.1593,0.0879 0.4742,0.2656 0.8654,0.7761 1.0454,1.2844 0.2259,0.6412 0.1701,1.315 -0.1046,1.883 0.4536,0.5358 0.6511,1.2422 0.5542,1.9287 0.8592,0.8141 1.0258,2.1529 0.3376,3.1618 -0.1576,0.2285 -0.3532,0.4212 -0.5757,0.5819 0.0927,0.2291 0.1516,0.4754 0.1698,0.7345 0.0725,0.9672 -0.4264,1.8454 -1.2107,2.3029 0.004,0.3373 -0.061,0.6664 -0.1862,0.9697 0.0411,0.2305 0.0558,0.4878 0.0379,0.7756 -0.0368,0.9362 -0.5967,1.7382 -1.3957,2.1203 -0.0434,0.1888 -0.0862,0.3801 -0.131,0.5641 0.0176,0.2613 0.0227,0.5703 0.0227,0.9382 l -0.007,0 c -9e-4,0.6614 -0.328,1.7567 -1.3266,2.1677 -0.5698,2.139 -2.469,1.9494 -2.7355,2.0038 -0.1502,0.0697 -0.1961,0.1276 -0.3356,0.1678 -0.2426,1.1095 -1.0806,1.5457 -1.1551,1.5908 -0.4643,1.133 -1.0933,1.6265 -2.6513,1.6906 -0.0331,0.0119 -0.464,0.3762 -0.8376,0.4371 l -0.0405,0.013 c -0.165,0.1423 -0.3515,0.2651 -0.559,0.3629 -0.4935,0.235 -0.9406,0.3472 -1.3471,0.3705 -0.2588,0.2344 -0.5717,0.4184 -0.9269,0.5275 -0.7169,0.2225 -1.3065,0.2069 -1.8184,0.07 -0.5769,0.559 -1.4159,0.8246 -2.2567,0.6313 -0.1224,-0.0278 -0.2389,-0.0601 -0.3478,-0.0953 -0.6641,0.3053 -1.2733,0.3079 -1.8161,0.1687 -0.3515,0.184 -0.7399,0.2781 -1.1313,0.2795 -0.3926,0.3118 -0.955,0.5082 -1.7981,0.5082 l 0,-0.003 c -0.3234,-5e-4 -0.6437,-0.064 -0.9425,-0.1871 -0.468,0.0953 -0.9853,0.0545 -1.5341,-0.0881 -0.3957,-0.1032 -0.7254,-0.2668 -1.0111,-0.4615 -0.1032,0.0125 -0.2081,0.0193 -0.3149,0.0193 -0.5871,0 -1.1515,-0.2424 -1.6538,-0.5658 -0.2253,0.0473 -0.4606,0.0629 -0.7021,0.0431 -0.5136,-0.0445 -0.9349,-0.2259 -1.2997,-0.4757 -0.1794,0.0247 -0.364,0.0289 -0.5527,0.0131 -0.3674,-0.0352 -0.7297,-0.1727 -1.0696,-0.3751 -0.3177,0.0783 -0.7149,0.0624 -1.2818,-0.0592 l 9e-4,-0.003 c -0.4672,-0.0995 -0.7937,-0.2243 -1.0347,-0.383 -0.6021,-0.1114 -1.1503,-0.4473 -1.5219,-0.9465 l -0.006,-6e-4 -0.004,0 0,-8e-4 c -0.0323,-0.007 -0.0643,-0.0119 -0.0958,-0.019 -0.1377,-0.0289 -0.2874,-0.0822 -0.4425,-0.1536 -0.3687,0.1207 -0.7704,0.157 -1.178,0.087 -1.0253,-0.1775 -1.5186,-0.6897 -1.7805,-1.2804 -0.5264,-0.0888 -1.0213,-0.3467 -1.3966,-0.7546 -0.1142,0.0201 -0.2222,0.038 -0.3234,0.051 -0.0777,0.0116 -0.1562,0.0199 -0.2356,0.0241 -0.0473,0.003 -0.0916,0.004 -0.1329,0.004 l 0,-10e-4 c -0.0672,0 -0.135,-0.003 -0.2019,-0.008 -0.6298,-0.0525 -1.1854,-0.3385 -1.5871,-0.7654 z m 36.8654,-34.5866 c -0.0853,-0.235 -0.1851,-0.4516 -0.3027,-0.65 -4.3733,-6.0171 -11.1195,-7.4492 -16.8015,-9.5176 -5.6293,2.0186 -15.5659,5.6373 -16.4611,9.7498 -0.0295,0.1723 -0.0567,0.3486 -0.0802,0.5281 -0.436,0.2931 -0.7614,0.6902 -0.9612,1.1392 -1.1679,0.0955 -2.1827,0.9488 -2.4291,2.1557 -0.0155,0.0746 -0.0272,0.1503 -0.0357,0.2251 -0.445,0.3705 -0.6916,0.8969 -0.7721,1.5591 -0.4828,0.3112 -0.8328,0.7537 -1.0347,1.252 -1.0253,0.387 -1.7541,1.3774 -1.7541,2.5382 l 0.001,0.0419 0,0.0117 8e-4,0.0206 c 9e-4,0.0772 0.005,0.1543 0.0139,0.2302 -0.7018,0.6095 -1.059,1.5565 -0.896,2.5047 0.0343,0.2231 0.0913,0.4261 0.167,0.6106 -0.203,0.3668 -0.3218,0.7829 -0.3354,1.2206 l -6e-4,0 c -0.006,0.1859 0.003,0.3625 0.0264,0.5306 -0.18,0.1072 -0.3297,0.2121 -0.4311,0.3121 -0.5913,0.5752 -0.8635,1.3558 -0.8133,2.1189 l -0.003,0 c 0.005,0.0743 0.0139,0.1486 0.0269,0.2223 0.023,0.1516 0.0575,0.3021 0.1066,0.4493 -0.0975,0.2191 -0.1664,0.451 -0.2033,0.691 -0.1196,0.7223 -0.0399,1.2989 0.171,1.7643 -1.169,0.5894 -1.7317,1.9199 -1.3842,3.1473 -0.3764,0.5494 -0.6437,1.133 -0.6931,1.6631 -0.004,0.0502 -0.007,0.0992 -0.01,0.1483 l -9e-4,0 -5e-4,0.0255 c -0.0252,0.7098 0.2262,1.3654 0.6562,1.8649 -0.1168,0.2999 -0.1885,0.5686 -0.1885,0.777 0,1.0927 0.6449,2.0344 1.5761,2.465 0.032,0.3305 0.0782,0.699 0.1442,1.1089 0.1576,0.9961 0.8408,1.7785 1.7218,2.1093 0.0267,0.3928 0.0797,0.7959 0.1803,1.2174 0.2064,0.8913 0.832,1.5767 1.62,1.8964 0.4453,0.6455 1.1667,1.0928 2.0095,1.1625 0.0748,0.006 0.1482,0.01 0.2222,0.01 l 0,10e-4 c 0.0448,0 0.0944,-0.002 0.1466,-0.005 0.0881,-0.005 0.1743,-0.0136 0.2602,-0.0277 0.1108,-0.0142 0.2313,-0.0326 0.3571,-0.055 0.415,0.4487 0.9601,0.7347 1.5404,0.8325 0.29,0.6523 0.8348,1.2172 1.965,1.4134 0.4501,0.0762 0.8946,0.0365 1.3005,-0.0964 0.1718,0.0788 0.3373,0.138 0.4884,0.1701 0.0343,0.007 0.0706,0.0133 0.1063,0.0201 l 0,8e-4 0.004,6e-4 0.006,10e-4 c 0.4099,0.5494 1.0154,0.9204 1.6804,1.0435 0.2662,0.1757 0.6256,0.3132 1.1409,0.4232 l -2e-4,0.002 c 0.625,0.1352 1.0638,0.1513 1.4142,0.0657 0.375,0.2242 0.7761,0.3759 1.1806,0.4133 0.2083,0.0187 0.4116,0.0136 0.6103,-0.0133 0.4022,0.2747 0.8671,0.4765 1.434,0.5247 0.2665,0.0224 0.5259,0.005 0.7745,-0.0468 0.5544,0.3555 1.1778,0.6248 1.826,0.6248 0.1174,0 0.2328,-0.009 0.3461,-0.0224 0.3158,0.2151 0.6798,0.3957 1.1158,0.5088 0.6063,0.1579 1.1769,0.2035 1.6942,0.0975 0.3297,0.1363 0.6832,0.2064 1.0406,0.2075 l 0,0.002 c 0.9301,0 1.5511,-0.2165 1.9843,-0.5606 0.4314,-10e-4 0.8603,-0.1049 1.2492,-0.3082 0.5981,0.1531 1.2705,0.1514 2.0038,-0.1868 0.1205,0.0389 0.2483,0.0751 0.3833,0.106 0.9286,0.2126 1.8541,-0.0802 2.4908,-0.6973 0.5649,0.1517 1.2157,0.1678 2.0066,-0.0771 0.3929,-0.1207 0.7382,-0.3234 1.0236,-0.5822 0.4482,-0.0255 0.9417,-0.15 1.4865,-0.4088 0.229,-0.108 0.4354,-0.2435 0.6174,-0.4011 l 0.0448,-0.0133 c 0.4121,-0.0669 0.8872,-0.4694 0.9241,-0.4833 1.7195,-0.0714 2.4137,-0.6148 2.9265,-1.8658 0.081,-0.0496 1.006,-0.5309 1.2747,-1.7549 0.1533,-0.0454 0.2044,-0.1086 0.3705,-0.186 0.2928,-0.0598 2.3893,0.1494 3.0189,-2.2118 1.1021,-0.453 1.4627,-1.6608 1.4632,-2.3913 l 0.008,0 c 0,-0.4068 -0.005,-0.7484 -0.0249,-1.0361 0.0496,-0.2038 0.0958,-0.4139 0.1434,-0.6225 0.8816,-0.4218 1.501,-1.3068 1.5412,-2.3403 0.0187,-0.318 0.004,-0.6018 -0.0419,-0.8549 0.1386,-0.3356 0.2106,-0.6993 0.2061,-1.0709 0.8657,-0.5054 1.4161,-1.4746 1.3362,-2.5421 -0.021,-0.2863 -0.0859,-0.5576 -0.1876,-0.8102 0.2449,-0.1774 0.4611,-0.3892 0.6349,-0.642 0.76,-1.114 0.576,-2.592 -0.3727,-3.49 0.108,-0.7577 -0.1106,-1.5367 -0.6112,-2.1286 0.3027,-0.6279 0.3643,-1.37 0.1148,-2.0786 -0.2052,-0.5825 -0.5913,-1.0514 -1.0718,-1.3652 0.004,-0.006 -0.0723,-0.0462 -0.081,-0.0521 -0.0579,-0.0346 -0.1165,-0.0664 -0.1761,-0.0967 -0.1015,-0.6078 -0.4093,-1.1801 -0.9,-1.6039 0.0372,-0.3137 0.0315,-0.6423 -0.0453,-1.0057 -0.2379,-1.1452 -1.1676,-1.9698 -2.2621,-2.1277 -0.1066,-0.1596 -0.2171,-0.3058 -0.3325,-0.4371 -0.0133,-0.4816 -0.0317,-0.8719 -0.0768,-1.0893 -0.0998,-0.4907 -0.3268,-0.9238 -0.6395,-1.2702 0.006,-0.0953 0.004,-0.205 -0.003,-0.3473 -0.0238,-0.4011 -0.0697,-0.659 -0.2577,-1.0185 -0.1893,-0.4549 -0.4895,-0.8308 -0.8558,-1.1097 -0.2372,-1.2901 -1.3515,-2.2312 -2.6668,-2.2295 l 0,-0.003 c -0.0431,0 -0.0876,10e-4 -0.1307,0.003" />
      <path
         inkscape:connector-curvature="0"
         id="path4252"
         style="fill:#ffffff;fill-opacity:1;fill-rule:evenodd;stroke:none"
         d="m 481.4252,622.3397 c 0.7826,3.7204 6.3294,5.4669 9.3534,5.4669 3.2718,0 9.6908,-2.17 10.1597,-6.0512 l 0.006,-0.0521 0.004,-0.0383 10e-4,-0.0133 0.006,-0.0522 0.002,-0.0249 0.003,-0.0267 0.006,-0.0527 0.001,-0.01 0.005,-0.042 0.005,-0.049 8e-4,-0.003 0.006,-0.0513 0.003,-0.0362 0.002,-0.0165 0.007,-0.0516 0.002,-0.0215 0.004,-0.0306 0.006,-0.0516 10e-4,-0.008 0.005,-0.0439 0.006,-0.0471 2e-4,-0.005 0.006,-0.0524 0.004,-0.032 0.002,-0.0196 0.006,-0.0522 0.003,-0.0192 0.004,-0.0321 0.007,-0.0521 3e-4,-0.006 0.005,-0.0465 0.006,-0.0431 6e-4,-0.008 0.007,-0.0521 0.004,-0.0304 0.002,-0.0212 0.008,-0.0528 0.001,-0.0167 0.005,-0.0343 0.007,-0.0521 0,-0.003 0.007,-0.0487 0.005,-0.0411 0.002,-0.0102 0.006,-0.0522 0.004,-0.0272 0.003,-0.0244 0.006,-0.0524 0.002,-0.0131 0.005,-0.0385 0.007,-0.0516 0,0 0.0213,-0.1556 0.003,-0.0244 0.004,-0.0269 0.0144,-0.1035 0.006,-0.049 0.001,-0.003 0.007,-0.0518 0.005,-0.0355 0.002,-0.0164 0.008,-0.0513 0.002,-0.0216 0.004,-0.0309 0.0365,-0.2573 0.008,-0.0519 0.002,-0.0184 0.005,-0.0329 0.015,-0.1032 0.006,-0.0434 0.001,-0.009 0.007,-0.0516 0.005,-0.0286 0.003,-0.0227 0.008,-0.0519 0.002,-0.0153 0.005,-0.0357 0.0468,-0.3087 c -0.7651,0.6492 -1.4397,1.1356 -2.1603,1.5316 -0.9785,0.5372 -2.0106,0.8887 -3.437,1.2331 -0.4932,0.1196 -0.9901,-0.1834 -1.1089,-0.6764 -0.1196,-0.4935 0.1831,-0.9898 0.6761,-1.1083 1.2605,-0.3053 2.1591,-0.6092 2.984,-1.0616 0.2733,-0.1508 0.5434,-0.3195 0.8187,-0.5125 l -4.561,0 c -1.3958,0 -2.5376,-1.1418 -2.5376,-2.5373 l 0,-0.769 c -0.3055,0.1851 -0.6329,0.2843 -0.9686,0.2843 -0.2996,0 -0.5927,-0.0791 -0.8679,-0.2265 l 0,0.7112 c 0,1.3955 -1.1415,2.5373 -2.5382,2.5373 l -4.8319,0 c 0.2764,0.193 0.5457,0.3617 0.8198,0.5125 0.8257,0.4524 1.7237,0.7563 2.9834,1.0616 0.4933,0.1185 0.7963,0.6148 0.6772,1.1083 -0.119,0.493 -0.6151,0.796 -1.1092,0.6764 -1.4266,-0.3444 -2.4587,-0.6959 -3.4367,-1.2331 -0.6032,-0.3305 -1.1724,-0.7251 -1.7898,-1.2234 l 0.0221,0.1655 0.004,0.0298 0.0323,0.2466 0.006,0.049 0.001,0.006 0.0377,0.2903 0.005,0.0442 c 0.0437,0.3336 0.0865,0.669 0.127,1.0066 l 0.005,0.0422 0.002,0.0133 0.0272,0.2245 0.007,0.0564 8e-4,0.006 0.0119,0.1006 0.001,0.006 0.006,0.057 0.005,0.0374 0.003,0.0184 0.006,0.0561 0.003,0.025 0.004,0.0323 0.007,0.0561 6e-4,0.0122 0.005,0.0439 0.006,0.0562 0,0 0.007,0.0572 0.0133,0.1134 0.004,0.0306 0.002,0.0258 0.006,0.0564 0.003,0.0187 0.004,0.038 0.0125,0.1131 0.006,0.0502 3e-4,0.006 0.006,0.0564 0.004,0.0377 0.002,0.019 0.007,0.0573 0.003,0.0246 0.003,0.0321 0.007,0.0567 8e-4,0.0119 0.005,0.0445 0.007,0.057 z m 21.7406,-13.3801 0.0144,-0.072 0.0264,-0.1287 0.0198,-0.0981 c 0.421,-2.0917 1.2158,-5.6356 0.94,-7.7287 -0.0391,-0.2712 -0.0984,-0.5366 -0.2035,-0.7906 l -0.0326,-0.0714 c -0.0114,-0.0235 -0.023,-0.0468 -0.0357,-0.0697 -3.214,-4.3427 -8.5972,-5.3915 -12.8053,-6.9854 -2.6002,0.97 -11.8907,3.9367 -12.3335,6.9621 l -0.001,0.0142 c -0.3314,2.5152 0.3886,6.7697 0.7004,8.7817 l 0.006,0.0434 0.0221,0.14 8.1915,0 c 1.3967,0 2.5382,1.1416 2.5382,2.5376 l 0,0.5463 c 0.0394,0.0498 0.0799,0.0963 0.1227,0.1394 0.2163,0.2174 0.4737,0.3402 0.7452,0.3402 0.2526,0 0.4941,-0.1063 0.701,-0.2968 0.0981,-0.0902 0.1871,-0.1982 0.2676,-0.3232 l 0,-0.4059 c 0,-1.396 1.1418,-2.5376 2.5376,-2.5376 l 8.4592,0 c 0.0399,0 0.0799,6e-4 0.1199,0.003" />
      <path
         inkscape:connector-curvature="0"
         id="path4254"
         style="fill:#b7ccd8;fill-opacity:1;fill-rule:evenodd;stroke:none"
         d="m 482.1381,602.9983 c 0.434,0.007 2.6229,-0.2375 2.6152,-0.2701 -0.2996,-0.0783 -1.9539,-1.0157 -1.9854,-1.2215 0.3881,-0.0697 1.7606,0.2231 2.52,0.2231 -0.1647,-0.4802 -0.9448,-0.6905 -0.9927,-1.3771 0.222,-0.1465 1.5095,0.434 1.91,0.4989 0.2112,-0.3861 -0.2284,-1.002 -0.0598,-1.4139 0.01,9e-4 1.821,0.6783 1.872,0.6676 0,-0.5426 0,-1.0443 0,-1.5461 0.5726,0.1503 1.3167,0.8623 1.3377,0.8655 0.0828,-0.1517 0.6814,-1.169 0.7274,-1.143 0.0635,0.1259 0.7781,3.132 0.989,3.9155 0.0133,0.0508 0.1227,0.3147 0.3455,0.3977 0.1879,-0.0742 0.3237,-0.3608 0.3376,-0.4124 0.2115,-0.7829 0.8532,-3.7749 0.9165,-3.9008 0.0464,-0.026 0.6446,0.9913 0.7276,1.143 0.0204,-0.003 0.7651,-0.7152 1.3374,-0.8655 0,0.5018 0,1.0035 0,1.5461 0.0505,0.0107 1.8624,-0.6667 1.872,-0.6676 0.1687,0.4119 -0.2716,1.0278 -0.0601,1.4139 0.4005,-0.0649 1.6889,-0.6454 1.9108,-0.4989 -0.0479,0.6866 -0.8291,0.8969 -0.9927,1.3771 0.7592,0 2.1314,-0.2928 2.5198,-0.2231 -0.0315,0.2058 -1.6864,1.1432 -1.9863,1.2215 -0.006,0.0326 2.1816,0.2766 2.6158,0.2701 -6.1001,0.5451 -12.1288,0.5723 -18.4773,0" />
      <path
         inkscape:connector-curvature="0"
         id="path4256"
         style="fill:#444443;fill-opacity:1;fill-rule:nonzero;stroke:none"
         d="m 481.6976,601.6669 c 0.015,0.0997 0.0533,0.2024 0.1111,0.3044 -0.4014,0.129 -0.7064,0.4884 -0.7458,0.9343 -0.051,0.5936 0.3883,1.1171 0.9822,1.1676 3.2071,0.2894 6.3326,0.4263 9.4252,0.4235 3.0844,-0.004 6.1393,-0.148 9.2117,-0.4207 0.5704,-0.034 1.0191,-0.5122 1.0123,-1.0896 -0.005,-0.4708 -0.3112,-0.8671 -0.7336,-1.0106 0.0428,-0.0878 0.0737,-0.1831 0.0918,-0.2831 0.1024,-0.5891 -0.2916,-1.1503 -0.8798,-1.2532 -0.1715,-0.0304 -0.3887,-0.0292 -0.6358,-0.0111 l 10e-4,-0.003 -10e-4,0 c 0.0252,-0.3747 -0.1458,-0.7512 -0.4819,-0.9737 -0.377,-0.2495 -0.8578,-0.2171 -1.3493,-0.0941 -0.0122,-0.0675 -0.0304,-0.1364 -0.0536,-0.2075 -0.1349,-0.4915 -0.6055,-0.8343 -1.1324,-0.7914 -0.1338,0.0107 -0.2971,0.0683 -0.5287,0.1536 -0.0578,0.0221 -0.1154,0.0496 -0.1712,0.0805 l 0,-0.0335 -0.003,0 c 0,-0.0895 -0.0116,-0.18 -0.0362,-0.2707 -0.1486,-0.5771 -0.7379,-0.9235 -1.3147,-0.7738 -0.2637,0.068 -0.5293,0.197 -0.7725,0.3421 -0.0258,-0.0337 -0.0521,-0.0666 -0.0794,-0.0992 -0.102,-0.1831 -0.2582,-0.3393 -0.46,-0.4402 -0.1253,-0.0629 -0.2574,-0.0987 -0.3884,-0.1103 -0.1939,-0.0266 -0.3991,0.009 -0.6154,0.1267 l 0.002,0.003 c -0.1857,0.1012 -0.3444,0.2593 -0.4456,0.4632 -0.0655,0.1321 -0.1823,0.5998 -0.3195,1.195 -0.0986,-0.3903 -0.187,-0.7287 -0.2517,-0.9481 -0.0136,-0.0618 -0.0326,-0.1219 -0.0567,-0.1798 -0.0102,-0.0294 -0.0198,-0.0516 -0.0272,-0.0671 l -0.004,8e-4 c -0.0949,-0.1913 -0.2471,-0.3566 -0.4493,-0.4666 -0.5998,-0.326 -1.1247,-0.0113 -1.5383,0.5236 -0.2024,-0.1213 -0.4204,-0.2308 -0.6392,-0.3039 -0.1253,-0.0502 -0.2611,-0.0771 -0.4037,-0.0771 -0.5975,0 -1.0834,0.4845 -1.0834,1.0828 l 0,0.0324 c -0.055,-0.0298 -0.1105,-0.0565 -0.1669,-0.0774 -0.0805,-0.0304 -0.1554,-0.0564 -0.2214,-0.0785 -0.076,-0.0307 -0.1528,-0.0511 -0.2299,-0.0644 -0.0326,-0.005 -0.0618,-0.0102 -0.0899,-0.0127 l 0,0.003 c -0.453,-0.0346 -0.8969,0.2228 -1.0794,0.6655 -0.0468,0.1143 -0.0785,0.2237 -0.0984,0.33 -0.3143,-0.0794 -0.6242,-0.1205 -0.9059,-0.0746 -0.5556,0.078 -0.9644,0.5735 -0.9267,1.1427 l 10e-4,0.003 c -0.2349,-0.0167 -0.4424,-0.0193 -0.6097,0.007 l -0.0252,0.004 c -0.5774,0.1006 -0.9717,0.6451 -0.8844,1.2274 z m 0.4405,1.3314 c 0.434,0.007 2.6229,-0.2375 2.6152,-0.2701 -0.2996,-0.0783 -1.9539,-1.0157 -1.9854,-1.2218 0.3881,-0.0694 1.7606,0.2234 2.52,0.2234 -0.1647,-0.4802 -0.9448,-0.6905 -0.9929,-1.3771 0.2222,-0.1465 1.5097,0.434 1.9097,0.4989 0.2117,-0.3861 -0.2285,-1.0026 -0.0593,-1.4139 0.0105,9e-4 1.821,0.6783 1.872,0.6676 0,-0.5426 0,-1.0443 0,-1.5461 0.5726,0.1503 1.3167,0.8615 1.3377,0.8655 0.0828,-0.1511 0.6814,-1.169 0.7274,-1.1427 0.0632,0.1256 0.7781,3.1317 0.989,3.9158 0.0133,0.0502 0.1227,0.3141 0.3455,0.3971 0.1879,-0.0742 0.3237,-0.3608 0.3376,-0.4124 0.2106,-0.7829 0.8532,-3.7749 0.9165,-3.9005 0.0464,-0.0263 0.6446,0.9916 0.727,1.1427 0.0207,-0.004 0.7657,-0.7152 1.338,-0.8655 0,0.5018 0,1.0035 0,1.5461 0.0505,0.0107 1.8624,-0.6667 1.872,-0.6676 0.1687,0.4113 -0.2713,1.0278 -0.0601,1.4139 0.4005,-0.0649 1.6889,-0.6454 1.9108,-0.4989 -0.0479,0.6866 -0.8291,0.8969 -0.9927,1.3771 0.7592,0 2.1314,-0.2928 2.5192,-0.2234 -0.0309,0.2061 -1.6858,1.1435 -1.9857,1.2218 -0.006,0.0326 2.1816,0.2766 2.6155,0.2701 -6.0998,0.5451 -12.128,0.5723 -18.477,0" />
      <path
         inkscape:connector-curvature="0"
         id="path4258"
         style="fill:#444443;fill-opacity:1;fill-rule:nonzero;stroke:none"
         d="m 483.931,612.248 c -0.1528,-0.3013 -0.5213,-0.4235 -0.8235,-0.271 -0.3021,0.1523 -0.4235,0.5213 -0.2715,0.8244 0.2236,0.4393 0.5686,0.801 0.9856,1.0499 0.4144,0.2466 0.898,0.385 1.4003,0.385 0.4586,0 0.9031,-0.1143 1.2937,-0.324 0.3935,-0.2115 0.7305,-0.5191 0.9723,-0.8995 0.1814,-0.2866 0.097,-0.6667 -0.1893,-0.8478 -0.2872,-0.1817 -0.6659,-0.097 -0.8473,0.1902 -0.1282,0.2012 -0.3073,0.3637 -0.5168,0.4759 -0.212,0.114 -0.4572,0.1766 -0.7126,0.1766 -0.2812,0 -0.5477,-0.0745 -0.7713,-0.208 -0.2208,-0.1321 -0.404,-0.3212 -0.5196,-0.5517" />
      <path
         inkscape:connector-curvature="0"
         id="path4260"
         style="fill:#444443;fill-opacity:1;fill-rule:nonzero;stroke:none"
         d="m 499.3302,612.8014 c 0.1528,-0.3031 0.0318,-0.6721 -0.2713,-0.8244 -0.3019,-0.1525 -0.6706,-0.0303 -0.8234,0.271 -0.1163,0.2305 -0.2982,0.4196 -0.5196,0.5517 -0.224,0.1335 -0.4901,0.208 -0.7705,0.208 -0.2574,0 -0.5017,-0.0626 -0.7135,-0.1766 -0.2111,-0.1131 -0.3903,-0.2747 -0.5162,-0.4748 -0.1805,-0.286 -0.5587,-0.3713 -0.845,-0.1913 -0.2863,0.18 -0.3721,0.559 -0.1921,0.8458 0.2426,0.3824 0.5799,0.6903 0.9725,0.9015 0.3895,0.2097 0.8348,0.324 1.2943,0.324 0.5017,0 0.9845,-0.1384 1.3989,-0.385 0.4176,-0.2489 0.7631,-0.6106 0.9859,-1.0499" />
      <path
         inkscape:connector-curvature="0"
         id="path4262"
         style="fill:#444443;fill-opacity:1;fill-rule:nonzero;stroke:none"
         d="m 492.474,607.3849 c 0.1534,0.3028 0.5213,0.4238 0.8241,0.2716 0.3016,-0.1528 0.4229,-0.5216 0.2715,-0.8232 -0.2247,-0.4411 -0.5694,-0.8022 -0.9861,-1.0508 -0.4145,-0.2475 -0.8981,-0.3861 -1.3998,-0.3861 -0.4598,0 -0.9042,0.1151 -1.2948,0.3249 -0.3912,0.2106 -0.7291,0.5181 -0.9718,0.9025 -0.1805,0.2857 -0.0938,0.665 0.1919,0.845 0.2863,0.18 0.6648,0.0938 0.8456,-0.1925 0.1262,-0.1995 0.305,-0.3614 0.5154,-0.4742 0.2126,-0.1142 0.4577,-0.1766 0.7137,-0.1766 0.2806,0 0.5471,0.0743 0.7702,0.2086 0.2217,0.1307 0.4034,0.3204 0.5201,0.5508" />
    </g>
    <text
       xml:space="preserve"
       style="font-size:144.13780212px;font-style:normal;font-variant:normal;font-weight:bold;font-stretch:normal;line-height:125%;letter-spacing:0px;word-spacing:0px;fill:#ffffff;fill-opacity:1;stroke:none;font-family:FontAwesome;-inkscape-font-specification:FontAwesome Bold"
       x="52.847008"
       y="969.67175"
       id="text4570"
       sodipodi:linespacing="125%"><tspan
         sodipodi:role="line"
         id="tspan4572"
         x="52.847008"
         y="969.67175"
         style="font-style:normal;font-variant:normal;font-weight:bold;font-stretch:normal;opacity:0.4902041;font-family:FontAwesome;-inkscape-font-specification:FontAwesome Bold"></tspan></text>
  </g>
</svg>
